<svg width="32.000000" height="32.000000" viewBox="0 0 32 32" fill="none" xmlns="http://www.w3.org/2000/svg" xmlns:xlink="http://www.w3.org/1999/xlink">
	<desc>
			Created with Pixso.
	</desc>
	<defs>
		<clipPath id="clip4_8961">
			<rect id="Frame" width="32.000000" height="32.000000" fill="white" fill-opacity="0"/>
		</clipPath>
	</defs>
	<rect id="Frame" width="32.000000" height="32.000000" fill="#FFFFFF" fill-opacity="0"/>
	<g clip-path="url(#clip4_8961)">
		<path id="Vector" d="M5.33 6.66C5.33 7.02 5.47 7.35 5.72 7.6C5.97 7.85 6.31 8 6.66 8C7.01 8 7.35 7.85 7.6 7.6C7.85 7.35 8 7.02 8 6.66C8 6.31 7.85 5.97 7.6 5.72C7.35 5.47 7.01 5.33 6.66 5.33C6.31 5.33 5.97 5.47 5.72 5.72C5.47 5.97 5.33 6.31 5.33 6.66Z" fill="#6ECDF0" fill-opacity="1.000000" fill-rule="nonzero"/>
		<path id="Vector" d="M5.72 7.6C5.97 7.85 6.31 8 6.66 8C7.01 8 7.35 7.85 7.6 7.6C7.85 7.35 8 7.02 8 6.66C8 6.31 7.85 5.97 7.6 5.72C7.35 5.47 7.01 5.33 6.66 5.33C6.31 5.33 5.97 5.47 5.72 5.72C5.47 5.97 5.33 6.31 5.33 6.66C5.33 7.02 5.47 7.35 5.72 7.6Z" stroke="#6ECDF0" stroke-opacity="1.000000" stroke-width="2.500000" stroke-linejoin="round"/>
		<path id="Vector" d="M14.66 6.66C14.66 7.02 14.8 7.35 15.05 7.6C15.3 7.85 15.64 8 16 8C16.35 8 16.69 7.85 16.94 7.6C17.19 7.35 17.33 7.02 17.33 6.66C17.33 6.31 17.19 5.97 16.94 5.72C16.69 5.47 16.35 5.33 16 5.33C15.64 5.33 15.3 5.47 15.05 5.72C14.8 5.97 14.66 6.31 14.66 6.66Z" fill="#6ECDF0" fill-opacity="1.000000" fill-rule="nonzero"/>
		<path id="Vector" d="M15.05 7.6C15.3 7.85 15.64 8 16 8C16.35 8 16.69 7.85 16.94 7.6C17.19 7.35 17.33 7.02 17.33 6.66C17.33 6.31 17.19 5.97 16.94 5.72C16.69 5.47 16.35 5.33 16 5.33C15.64 5.33 15.3 5.47 15.05 5.72C14.8 5.97 14.66 6.31 14.66 6.66C14.66 7.02 14.8 7.35 15.05 7.6Z" stroke="#6ECDF0" stroke-opacity="1.000000" stroke-width="2.500000" stroke-linejoin="round"/>
		<path id="Vector" d="M24 6.66C24 7.02 24.14 7.35 24.39 7.6C24.64 7.85 24.97 8 25.33 8C25.68 8 26.02 7.85 26.27 7.6C26.52 7.35 26.66 7.02 26.66 6.66C26.66 6.31 26.52 5.97 26.27 5.72C26.02 5.47 25.68 5.33 25.33 5.33C24.97 5.33 24.64 5.47 24.39 5.72C24.14 5.97 24 6.31 24 6.66Z" fill="#6ECDF0" fill-opacity="1.000000" fill-rule="nonzero"/>
		<path id="Vector" d="M24.39 7.6C24.64 7.85 24.97 8 25.33 8C25.68 8 26.02 7.85 26.27 7.6C26.52 7.35 26.66 7.02 26.66 6.66C26.66 6.31 26.52 5.97 26.27 5.72C26.02 5.47 25.68 5.33 25.33 5.33C24.97 5.33 24.64 5.47 24.39 5.72C24.14 5.97 24 6.31 24 6.66C24 7.02 24.14 7.35 24.39 7.6Z" stroke="#6ECDF0" stroke-opacity="1.000000" stroke-width="2.500000" stroke-linejoin="round"/>
		<path id="Vector" d="M5.33 16C5.33 16.35 5.47 16.69 5.72 16.94C5.97 17.19 6.31 17.33 6.66 17.33C7.01 17.33 7.35 17.19 7.6 16.94C7.85 16.69 8 16.35 8 16C8 15.64 7.85 15.3 7.6 15.05C7.35 14.8 7.01 14.66 6.66 14.66C6.31 14.66 5.97 14.8 5.72 15.05C5.47 15.3 5.33 15.64 5.33 16Z" fill="#6ECDF0" fill-opacity="1.000000" fill-rule="nonzero"/>
		<path id="Vector" d="M5.72 16.94C5.97 17.19 6.31 17.33 6.66 17.33C7.01 17.33 7.35 17.19 7.6 16.94C7.85 16.69 8 16.35 8 16C8 15.64 7.85 15.3 7.6 15.05C7.35 14.8 7.01 14.66 6.66 14.66C6.31 14.66 5.97 14.8 5.72 15.05C5.47 15.3 5.33 15.64 5.33 16C5.33 16.35 5.47 16.69 5.72 16.94Z" stroke="#6ECDF0" stroke-opacity="1.000000" stroke-width="2.500000" stroke-linejoin="round"/>
		<path id="Vector" d="M14.66 16C14.66 16.35 14.8 16.69 15.05 16.94C15.3 17.19 15.64 17.33 16 17.33C16.35 17.33 16.69 17.19 16.94 16.94C17.19 16.69 17.33 16.35 17.33 16C17.33 15.64 17.19 15.3 16.94 15.05C16.69 14.8 16.35 14.66 16 14.66C15.64 14.66 15.3 14.8 15.05 15.05C14.8 15.3 14.66 15.64 14.66 16Z" fill="#6ECDF0" fill-opacity="1.000000" fill-rule="nonzero"/>
		<path id="Vector" d="M15.05 16.94C15.3 17.19 15.64 17.33 16 17.33C16.35 17.33 16.69 17.19 16.94 16.94C17.19 16.69 17.33 16.35 17.33 16C17.33 15.64 17.19 15.3 16.94 15.05C16.69 14.8 16.35 14.66 16 14.66C15.64 14.66 15.3 14.8 15.05 15.05C14.8 15.3 14.66 15.64 14.66 16C14.66 16.35 14.8 16.69 15.05 16.94Z" stroke="#6ECDF0" stroke-opacity="1.000000" stroke-width="2.500000" stroke-linejoin="round"/>
		<path id="Vector" d="M24 16C24 16.35 24.14 16.69 24.39 16.94C24.64 17.19 24.97 17.33 25.33 17.33C25.68 17.33 26.02 17.19 26.27 16.94C26.52 16.69 26.66 16.35 26.66 16C26.66 15.64 26.52 15.3 26.27 15.05C26.02 14.8 25.68 14.66 25.33 14.66C24.97 14.66 24.64 14.8 24.39 15.05C24.14 15.3 24 15.64 24 16Z" fill="#6ECDF0" fill-opacity="1.000000" fill-rule="nonzero"/>
		<path id="Vector" d="M24.39 16.94C24.64 17.19 24.97 17.33 25.33 17.33C25.68 17.33 26.02 17.19 26.27 16.94C26.52 16.69 26.66 16.35 26.66 16C26.66 15.64 26.52 15.3 26.27 15.05C26.02 14.8 25.68 14.66 25.33 14.66C24.97 14.66 24.64 14.8 24.39 15.05C24.14 15.3 24 15.64 24 16C24 16.35 24.14 16.69 24.39 16.94Z" stroke="#6ECDF0" stroke-opacity="1.000000" stroke-width="2.500000" stroke-linejoin="round"/>
		<path id="Vector" d="M5.33 25.33C5.33 25.68 5.47 26.02 5.72 26.27C5.97 26.52 6.31 26.66 6.66 26.66C7.01 26.66 7.35 26.52 7.6 26.27C7.85 26.02 8 25.68 8 25.33C8 24.98 7.85 24.64 7.6 24.39C7.35 24.14 7.01 24 6.66 24C6.31 24 5.97 24.14 5.72 24.39C5.47 24.64 5.33 24.98 5.33 25.33Z" fill="#6ECDF0" fill-opacity="1.000000" fill-rule="nonzero"/>
		<path id="Vector" d="M5.72 26.27C5.97 26.52 6.31 26.66 6.66 26.66C7.01 26.66 7.35 26.52 7.6 26.27C7.85 26.02 8 25.68 8 25.33C8 24.98 7.85 24.64 7.6 24.39C7.35 24.14 7.01 24 6.66 24C6.31 24 5.97 24.14 5.72 24.39C5.47 24.64 5.33 24.98 5.33 25.33C5.33 25.68 5.47 26.02 5.72 26.27Z" stroke="#6ECDF0" stroke-opacity="1.000000" stroke-width="2.500000" stroke-linejoin="round"/>
		<path id="Vector" d="M14.66 25.33C14.66 25.68 14.8 26.02 15.05 26.27C15.3 26.52 15.64 26.66 16 26.66C16.35 26.66 16.69 26.52 16.94 26.27C17.19 26.02 17.33 25.68 17.33 25.33C17.33 24.98 17.19 24.64 16.94 24.39C16.69 24.14 16.35 24 16 24C15.64 24 15.3 24.14 15.05 24.39C14.8 24.64 14.66 24.98 14.66 25.33Z" fill="#6ECDF0" fill-opacity="1.000000" fill-rule="nonzero"/>
		<path id="Vector" d="M15.05 26.27C15.3 26.52 15.64 26.66 16 26.66C16.35 26.66 16.69 26.52 16.94 26.27C17.19 26.02 17.33 25.68 17.33 25.33C17.33 24.98 17.19 24.64 16.94 24.39C16.69 24.14 16.35 24 16 24C15.64 24 15.3 24.14 15.05 24.39C14.8 24.64 14.66 24.98 14.66 25.33C14.66 25.68 14.8 26.02 15.05 26.27Z" stroke="#6ECDF0" stroke-opacity="1.000000" stroke-width="2.500000" stroke-linejoin="round"/>
		<path id="Vector" d="M24 25.33C24 25.68 24.14 26.02 24.39 26.27C24.64 26.52 24.97 26.66 25.33 26.66C25.68 26.66 26.02 26.52 26.27 26.27C26.52 26.02 26.66 25.68 26.66 25.33C26.66 24.98 26.52 24.64 26.27 24.39C26.02 24.14 25.68 24 25.33 24C24.97 24 24.64 24.14 24.39 24.39C24.14 24.64 24 24.98 24 25.33Z" fill="#6ECDF0" fill-opacity="1.000000" fill-rule="nonzero"/>
		<path id="Vector" d="M24.39 26.27C24.64 26.52 24.97 26.66 25.33 26.66C25.68 26.66 26.02 26.52 26.27 26.27C26.52 26.02 26.66 25.68 26.66 25.33C26.66 24.98 26.52 24.64 26.27 24.39C26.02 24.14 25.68 24 25.33 24C24.97 24 24.64 24.14 24.39 24.39C24.14 24.64 24 24.98 24 25.33C24 25.68 24.14 26.02 24.39 26.27Z" stroke="#6ECDF0" stroke-opacity="1.000000" stroke-width="2.500000" stroke-linejoin="round"/>
	</g>
</svg>
