<svg width="24.000000" height="24.000000" viewBox="0 0 24 24" fill="none" xmlns="http://www.w3.org/2000/svg" xmlns:xlink="http://www.w3.org/1999/xlink">
	<desc>
			Created with Pixso.
	</desc>
	<defs>
		<clipPath id="clip4_9003">
			<rect id="Frame" width="24.000000" height="24.000000" fill="white" fill-opacity="0"/>
		</clipPath>
	</defs>
	<rect id="Frame" width="24.000000" height="24.000000" fill="#FFFFFF" fill-opacity="0"/>
	<g clip-path="url(#clip4_9003)">
		<path id="Vector" d="M7 14L10 14L10 21L14 21L14 14L17 14L18 10L14 10L14 8C14 7.73 14.1 7.48 14.29 7.29C14.48 7.1 14.73 7 15 7L18 7L18 3L15 3C13.67 3 12.4 3.52 11.46 4.46C10.52 5.4 10 6.67 10 8L10 10L7 10L7 14Z" stroke="#06496E" stroke-opacity="1.000000" stroke-width="1.500000" stroke-linejoin="round"/>
	</g>
</svg>
