<svg width="80" height="80" viewBox="0 0 80 80" fill="none" xmlns="http://www.w3.org/2000/svg">
<path d="M64.3008 24.7078C64.9981 27.186 65.6229 29.6061 65.6059 32.139C65.5963 33.5758 65.6381 35.0141 65.5849 36.4491C65.56 37.1191 65.7826 37.5214 66.3348 37.8927C68.449 39.3145 70.3162 41.0071 71.9684 42.9627C73.9967 45.3637 74.2889 47.9379 73.3085 50.8709C71.8033 55.3741 69.6416 59.5352 67.1148 63.5254C66.5332 64.4437 65.8952 65.3292 65.2401 66.1974C64.5708 67.0845 63.3717 66.9237 62.8727 65.9224C61.521 63.2099 60.1665 60.4989 58.8023 57.7928C58.6491 57.4889 58.4266 57.2201 58.303 57.0349C56.1576 59.4304 54.1665 61.9214 51.8915 64.1186C49.6153 66.3169 47.0555 68.2216 44.462 70.3869C45.6968 71.4184 46.9551 72.5044 48.2515 73.5427C49.5833 74.6094 50.9549 75.6262 52.304 76.6714C52.9213 77.1497 52.9476 77.7771 52.635 78.4152C52.2973 79.1046 51.6862 79.0606 51.031 78.9526C46.6838 78.236 42.7778 76.4757 39.1397 74.0381C38.8458 73.8411 38.2866 73.8122 37.9473 73.9475C35.6251 74.8734 33.3314 75.8476 30.8333 76.2558C27.5831 76.787 24.9657 75.9955 22.7655 73.3545C20.6816 70.8532 18.779 68.2487 17.1293 65.4649C15.9014 63.3928 14.8359 61.2201 13.7807 59.0519C13.2074 57.874 13.8681 56.9182 15.1148 56.9996C16.0803 57.0625 17.039 57.2833 18.0032 57.3016C20.3907 57.347 22.7797 57.3165 25.2366 57.3165C24.9501 56.5864 24.6257 55.7582 24.3001 54.9304C22.7547 51.0011 21.6652 46.9533 21.1477 42.7583C21.0184 41.7095 20.8834 40.6597 20.8087 39.6064C20.7625 38.9556 20.5441 38.7558 19.9133 39.0072C17.7833 39.8559 15.6452 40.6842 13.5102 41.5201C12.6897 41.8414 11.8701 42.1647 11.0483 42.4823C10.411 42.7286 9.88471 42.5771 9.50238 42.0068C9.12556 41.4447 9.17842 40.8985 9.59877 40.3755C11.691 37.7722 14.2171 35.6706 17.0768 33.9681C18.1114 33.3521 19.2366 32.8804 20.2339 32.2135C20.5614 31.9946 20.7425 31.3767 20.7747 30.9258C20.9716 28.1726 21.5595 25.5128 22.6166 22.9686C23.5827 20.6432 25.3749 19.3069 27.821 18.7683C30.7305 18.1275 33.6624 17.7222 36.6458 17.6898C37.6165 17.6792 38.5889 17.5025 39.556 17.5353C41.5867 17.6042 43.6162 17.737 45.6425 17.8917C46.9066 17.9882 47.3959 19.0751 46.6848 20.1718C45.1169 22.5895 43.5217 24.9893 41.9502 27.4047C41.7154 27.7657 41.5487 28.1712 41.2907 28.6722C42.6159 28.8782 43.7977 29.0615 44.9795 29.2457C49.098 29.8878 53.0422 31.1297 56.8829 32.7211C57.6164 33.0251 58.3363 33.3641 59.0514 33.7097C59.5444 33.9479 59.8287 33.8738 59.9194 33.2857C60.2051 31.431 60.5155 29.5802 60.7997 27.7254C60.9909 26.4776 61.1523 25.2252 61.3301 23.9754C61.4338 23.2465 61.8341 22.7579 62.5778 22.6993C63.2922 22.6429 63.7224 23.0537 63.9186 23.7378C64.0075 24.0478 64.1531 24.3415 64.3008 24.7078ZM35.2024 49.2524C35.4326 51.3216 35.6808 53.389 35.883 55.4609C35.953 56.1792 36.1967 56.3371 36.9162 56.1555C41.238 55.0649 45.2817 53.3797 48.8518 50.6727C49.872 49.8992 50.8177 49.0273 51.9136 48.1027C50.5836 46.8661 49.4224 45.7371 48.2087 44.6678C45.1846 42.0035 41.7031 40.1478 37.8945 38.8594C37.0681 38.5799 36.719 38.7975 36.5121 39.595C35.7048 42.7054 35.0634 45.8353 35.2024 49.2524Z" fill="white"/>
<path d="M43.6854 5.43147C45.1253 9.85953 42.5013 14.0473 37.9643 14.7781C33.6515 15.4728 30.0623 11.847 30.0009 7.9701C29.9401 4.13293 32.998 1.20575 35.8003 0.919116C39.422 0.548657 42.0109 1.67985 43.6854 5.43147Z" fill="white"/>
</svg>
