<svg width="24.000000" height="24.000000" viewBox="0 0 24 24" fill="none" xmlns="http://www.w3.org/2000/svg" xmlns:xlink="http://www.w3.org/1999/xlink">
	<desc>
			Created with Pixso.
	</desc>
	<defs>
		<clipPath id="clip4_8965">
			<rect id="glasses 1" width="24.000000" height="24.000000" fill="white" fill-opacity="0"/>
		</clipPath>
	</defs>
	<rect id="glasses 1" width="24.000000" height="24.000000" fill="#FFFFFF" fill-opacity="0"/>
	<g clip-path="url(#clip4_8965)">
		<path id="Vector" d="M20 0C18.93 0 17.92 0.42 17.17 1.17C16.42 1.92 16 2.93 16 4C16 4.26 16.1 4.51 16.29 4.7C16.48 4.89 16.73 5 17 5C17.26 5 17.51 4.89 17.7 4.7C17.89 4.51 18 4.26 18 4C18 3.46 18.21 2.96 18.58 2.58C18.96 2.21 19.46 2 20 2C20.53 2 21.03 2.21 21.41 2.58C21.78 2.96 22 3.46 22 4L22 15.02C21.13 14.36 20.08 14 19 14C18.18 14 17.37 14.2 16.65 14.58C15.92 14.97 15.31 15.52 14.85 16.2C14.48 15.82 14.04 15.52 13.54 15.31C13.05 15.1 12.53 15 12 15C11.46 15 10.94 15.1 10.45 15.31C9.95 15.52 9.51 15.82 9.14 16.2C8.68 15.52 8.07 14.97 7.34 14.58C6.62 14.2 5.81 14 5 14C3.91 14 2.86 14.36 2 15.02L2 4C2 3.46 2.21 2.96 2.58 2.58C2.96 2.21 3.46 2 4 2C4.53 2 5.03 2.21 5.41 2.58C5.78 2.96 6 3.46 6 4C6 4.26 6.1 4.51 6.29 4.7C6.48 4.89 6.73 5 7 5C7.26 5 7.51 4.89 7.7 4.7C7.89 4.51 8 4.26 8 4C8 2.93 7.57 1.92 6.82 1.17C6.07 0.42 5.06 0 4 0C2.93 0 1.92 0.42 1.17 1.17C0.42 1.92 0 2.93 0 4L0 19C0 20.32 0.52 21.59 1.46 22.53C2.4 23.47 3.67 24 5 24C6.32 24 7.59 23.47 8.53 22.53C9.47 21.59 10 20.32 10 19C10 18.46 10.21 17.96 10.58 17.58C10.96 17.21 11.46 17 12 17C12.53 17 13.03 17.21 13.41 17.58C13.78 17.96 14 18.46 14 19C14 20.32 14.52 21.59 15.46 22.53C16.4 23.47 17.67 24 19 24C20.32 24 21.59 23.47 22.53 22.53C23.47 21.59 24 20.32 24 19L24 4C24 2.93 23.57 1.92 22.82 1.17C22.07 0.42 21.06 0 20 0ZM5 22C4.4 22 3.82 21.82 3.33 21.49C2.83 21.16 2.45 20.69 2.22 20.14C2 19.59 1.94 18.99 2.05 18.41C2.17 17.83 2.45 17.29 2.87 16.87C3.29 16.45 3.83 16.17 4.41 16.05C4.99 15.94 5.6 16 6.14 16.22C6.69 16.45 7.16 16.83 7.49 17.33C7.82 17.82 8 18.4 8 19C8 19.79 7.68 20.55 7.12 21.12C6.55 21.68 5.79 22 5 22ZM19 22C18.4 22 17.82 21.82 17.33 21.49C16.83 21.16 16.45 20.69 16.22 20.14C16 19.59 15.94 18.99 16.05 18.41C16.17 17.83 16.45 17.29 16.87 16.87C17.29 16.45 17.83 16.17 18.41 16.05C18.99 15.94 19.6 16 20.14 16.22C20.69 16.45 21.16 16.83 21.49 17.33C21.82 17.82 22 18.4 22 19C22 19.79 21.68 20.55 21.12 21.12C20.55 21.68 19.79 22 19 22Z" fill="#06496E" fill-opacity="1.000000" fill-rule="nonzero"/>
	</g>
</svg>
