<svg width="80.000000" height="80.000000" viewBox="0 0 80 80" fill="none" xmlns="http://www.w3.org/2000/svg" xmlns:xlink="http://www.w3.org/1999/xlink">
	<desc>
			Created with Pixso.
	</desc>
	<defs>
		<clipPath id="clip4_8899">
			<rect id="logo_center 1" width="80.000000" height="80.000000" fill="white" fill-opacity="0"/>
		</clipPath>
	</defs>
	<rect id="logo_center 1" width="80.000000" height="80.000000" fill="#FFFFFF" fill-opacity="0"/>
	<g clip-path="url(#clip4_8899)">
		<path id="Vector" d="M64.3 24.7C64.99 27.18 65.62 29.6 65.6 32.13C65.59 33.57 65.63 35.01 65.58 36.44C65.55 37.11 65.78 37.52 66.33 37.89C68.44 39.31 70.31 41 71.96 42.96C73.99 45.36 74.28 47.93 73.3 50.87C71.8 55.37 69.64 59.53 67.11 63.52C66.53 64.44 65.89 65.33 65.24 66.19C64.57 67.08 63.37 66.92 62.87 65.92C61.52 63.2 60.16 60.49 58.8 57.79C58.64 57.48 58.42 57.22 58.3 57.03C56.15 59.42 54.16 61.92 51.89 64.11C49.61 66.31 47.05 68.22 44.46 70.38C45.69 71.41 46.95 72.5 48.25 73.54C49.58 74.6 50.95 75.62 52.3 76.67C52.92 77.15 52.94 77.77 52.63 78.41C52.29 79.1 51.68 79.06 51.03 78.95C46.68 78.23 42.77 76.47 39.13 74.03C38.84 73.84 38.28 73.81 37.94 73.94C35.62 74.87 33.33 75.84 30.83 76.25C27.58 76.78 24.96 75.99 22.76 73.35C20.68 70.85 18.77 68.24 17.12 65.46C15.9 63.39 14.83 61.22 13.78 59.05C13.2 57.87 13.86 56.91 15.11 57C16.08 57.06 17.03 57.28 18 57.3C20.39 57.34 22.77 57.31 25.23 57.31C24.95 56.58 24.62 55.75 24.29 54.92C22.75 51 21.66 46.95 21.14 42.75C21.01 41.7 20.88 40.66 20.8 39.6C20.76 38.95 20.54 38.75 19.91 39C17.78 39.85 15.64 40.68 13.5 41.51C12.68 41.84 11.87 42.16 11.04 42.48C10.41 42.72 9.88 42.57 9.5 42C9.12 41.44 9.17 40.89 9.59 40.37C11.69 37.77 14.21 35.66 17.07 33.96C18.11 33.35 19.23 32.88 20.23 32.21C20.56 31.99 20.74 31.37 20.77 30.92C20.97 28.17 21.55 25.51 22.61 22.96C23.58 20.64 25.37 19.3 27.82 18.76C30.73 18.12 33.66 17.72 36.64 17.68C37.61 17.67 38.58 17.5 39.55 17.53C41.58 17.6 43.61 17.73 45.64 17.89C46.9 17.98 47.39 19.07 46.68 20.17C45.11 22.58 43.52 24.99 41.95 27.4C41.71 27.76 41.54 28.17 41.29 28.67C42.61 28.87 43.79 29.06 44.97 29.24C49.09 29.88 53.04 31.12 56.88 32.72C57.61 33.02 58.33 33.36 59.05 33.7C59.54 33.94 59.82 33.87 59.91 33.28C60.2 31.43 60.51 29.58 60.79 27.72C60.99 26.47 61.15 25.22 61.33 23.97C61.43 23.24 61.83 22.75 62.57 22.69C63.29 22.64 63.72 23.05 63.91 23.73C64 24.04 64.15 24.34 64.3 24.7ZM35.2 49.25C35.43 51.32 35.68 53.38 35.88 55.46C35.95 56.17 36.19 56.33 36.91 56.15C41.23 55.06 45.28 53.37 48.85 50.67C49.87 49.89 50.81 49.02 51.91 48.1C50.58 46.86 49.42 45.73 48.2 44.66C45.18 42 41.7 40.14 37.89 38.85C37.06 38.58 36.71 38.79 36.51 39.59C35.7 42.7 35.06 45.83 35.2 49.25Z" fill="#06496E" fill-opacity="1.000000" fill-rule="nonzero"/>
		<path id="Vector" d="M43.68 5.43C45.12 9.86 42.5 14.04 37.96 14.77C33.65 15.47 30.06 11.84 30 7.97C29.93 4.13 32.99 1.2 35.79 0.91C39.42 0.54 42 1.68 43.68 5.43Z" fill="#06496E" fill-opacity="1.000000" fill-rule="nonzero"/>
	</g>
</svg>
