<svg width="20.000000" height="20.000000" viewBox="0 0 20 20" fill="none" xmlns="http://www.w3.org/2000/svg" xmlns:xlink="http://www.w3.org/1999/xlink">
	<desc>
			Created with Pixso.
	</desc>
	<defs>
		<clipPath id="clip4_8976">
			<rect id="search (1) 1" width="20.000000" height="20.000000" fill="white" fill-opacity="0"/>
		</clipPath>
	</defs>
	<rect id="search (1) 1" width="20.000000" height="20.000000" fill="#FFFFFF" fill-opacity="0"/>
	<g clip-path="url(#clip4_8976)">
		<path id="Vector" d="M19.75 18.57L14.78 13.6C16.13 11.94 16.8 9.83 16.64 7.69C16.48 5.55 15.5 3.56 13.91 2.12C12.33 0.69 10.25 -0.08 8.11 -0.03C5.97 0.02 3.93 0.9 2.41 2.41C0.9 3.93 0.02 5.97 -0.03 8.11C-0.08 10.25 0.69 12.33 2.13 13.91C3.56 15.5 5.55 16.48 7.69 16.64C9.83 16.8 11.94 16.13 13.6 14.78L18.57 19.75C18.73 19.9 18.94 19.99 19.16 19.98C19.38 19.98 19.59 19.9 19.74 19.74C19.9 19.58 19.98 19.38 19.99 19.16C19.99 18.94 19.9 18.73 19.75 18.57ZM8.33 15C7.01 15 5.72 14.6 4.62 13.87C3.53 13.14 2.67 12.1 2.17 10.88C1.66 9.66 1.53 8.32 1.79 7.03C2.05 5.73 2.68 4.55 3.61 3.61C4.55 2.68 5.73 2.05 7.03 1.79C8.32 1.53 9.66 1.66 10.88 2.17C12.1 2.67 13.14 3.53 13.87 4.62C14.6 5.72 15 7.01 15 8.33C14.99 10.09 14.29 11.79 13.04 13.04C11.79 14.29 10.1 14.99 8.33 15Z" fill="#06496E" fill-opacity="1.000000" fill-rule="nonzero"/>
	</g>
</svg>
