<svg width="24.000000" height="24.000000" viewBox="0 0 24 24" fill="none" xmlns="http://www.w3.org/2000/svg" xmlns:xlink="http://www.w3.org/1999/xlink">
	<desc>
			Created with Pixso.
	</desc>
	<defs>
		<clipPath id="clip4_9015">
			<rect id="Frame" width="24.000000" height="24.000000" fill="white" fill-opacity="0"/>
		</clipPath>
	</defs>
	<rect id="Frame" width="24.000000" height="24.000000" fill="#FFFFFF" fill-opacity="0"/>
	<g clip-path="url(#clip4_9015)">
		<path id="Vector" d="M2.25 17.12C2.09 17.41 2 17.74 2 18.07C2 18.41 2.08 18.74 2.25 19.02C2.41 19.32 2.65 19.56 2.94 19.73C3.23 19.9 3.55 19.99 3.89 19.99L20.1 19.99C20.44 19.99 20.76 19.9 21.05 19.73C21.34 19.56 21.58 19.32 21.74 19.02C21.91 18.74 22 18.41 21.99 18.07C21.99 17.74 21.91 17.41 21.74 17.12L13.63 3.58C13.46 3.3 13.22 3.07 12.93 2.91C12.65 2.75 12.33 2.66 12 2.66C11.67 2.66 11.34 2.75 11.06 2.91C10.77 3.07 10.53 3.3 10.36 3.58L10.36 3.59L2.25 17.12Z" stroke="#EE3E45" stroke-opacity="1.000000" stroke-width="1.500000" stroke-linejoin="round"/>
		<path id="Vector" d="M12 9L12 9" stroke="#EE3E45" stroke-opacity="1.000000" stroke-width="1.500000" stroke-linejoin="round" stroke-linecap="round"/>
		<path id="Vector" d="M11 12L12 12L12 16L13 16" stroke="#EE3E45" stroke-opacity="1.000000" stroke-width="1.500000" stroke-linejoin="round" stroke-linecap="round"/>
	</g>
</svg>
